<svg width="1060" height="2700" viewBox="0 0 1060 2700" fill="none" xmlns="http://www.w3.org/2000/svg">
<g filter="url(#filter0_iii_4377_13800)">
<path d="M54.1025 385.457C57.352 256.792 142.455 145.273 265.035 105.372L273.688 102.555C452.851 44.2344 646.063 47.4788 822.506 111.771C939.053 154.238 1016.75 264.52 1017.42 388.755C1018.6 606.922 1020.25 978.002 1020.61 1404.12C1020.91 1759.47 1010.65 2116.54 1002.22 2348.84C996.7 2501.09 883.846 2627.81 733.426 2652.79L682.448 2661.26C573.467 2679.37 462.205 2677.48 354.114 2655.69L331.556 2651.15C182.842 2621.17 75.6843 2491.51 73.4705 2339.7C70.4114 2129.92 64.7272 1805.02 54.6659 1408.68C43.562 971.263 48.5961 603.478 54.1025 385.457Z" fill="url(#paint0_linear_4377_13800)"/>
</g>
<g filter="url(#filter1_iii_4377_13800)">
<path d="M54.1025 385.457C57.352 256.792 142.455 145.273 265.035 105.372L273.688 102.555C452.851 44.2344 646.063 47.4788 822.506 111.771C939.053 154.238 1016.75 264.52 1017.42 388.755C1018.6 606.922 1020.25 978.002 1020.61 1404.12C1020.91 1759.47 1010.65 2116.54 1002.22 2348.84C996.7 2501.09 883.846 2627.81 733.426 2652.79L682.448 2661.26C573.467 2679.37 462.205 2677.48 354.114 2655.69L331.556 2651.15C182.842 2621.17 75.6843 2491.51 73.4705 2339.7C70.4114 2129.92 64.7272 1805.02 54.6659 1408.68C43.562 971.263 48.5961 603.478 54.1025 385.457Z" fill="url(#paint1_linear_4377_13800)"/>
</g>
<path d="M156.717 859.17C136.095 762.383 194.362 662.218 290.725 638.361L298.586 636.414C455.453 597.577 619.441 600.049 774.506 643.587C866.395 669.388 918.7 767.438 896.837 860.649C862.201 1008.31 821.188 1239.64 822.585 1503.1C823.746 1721.98 855.474 1942.31 883.956 2096.91C904.642 2209.19 827.889 2320.28 714.351 2334.51L695.542 2336.87C577.144 2351.7 457.364 2349.9 339.693 2331.51C233.089 2314.85 165.856 2203.39 188.088 2097.56C217.512 1957.49 246.081 1751.99 236.864 1505.12C226.816 1236 188.17 1006.78 156.717 859.17Z" fill="#A7A5A5"/>
<path fill-rule="evenodd" clip-rule="evenodd" d="M114.473 470.841C122.213 322.641 212.502 190.678 346.324 125.752C464.219 68.5545 602.369 66.9246 720.472 122.208C859.743 187.401 949.724 325.622 952.485 479.702C953.801 553.187 955.272 638.787 956.737 730.919C956.788 734.136 952.495 735.535 950.509 733.004C948.51 730.457 944.542 732.295 944.895 735.513C947.068 755.323 946.224 775.727 942.024 796.016C908.178 959.548 865.926 1226.16 867.768 1531.83C869.224 1773.26 904.547 2016.28 936.719 2188.69C942.568 2220.04 941.78 2251.32 935.362 2280.95C935.152 2281.92 936.371 2282.54 937.01 2281.78C937.605 2281.07 938.765 2281.54 938.71 2282.46C935.439 2337.59 932.393 2384.91 929.949 2421.39C926.623 2471.04 893.983 2513.68 847.086 2530.55L826.735 2537.87C628.176 2609.31 411.013 2607.28 214.742 2532.15C172.208 2515.87 143.104 2476.69 140.239 2431.17C137.692 2390.69 134.289 2335.13 130.42 2268.1C130.192 2264.16 135.744 2262.48 137.942 2265.75C140.102 2268.97 144.978 2266.88 144.535 2263.03C141.753 2238.85 142.708 2213.98 147.878 2189.4C180.753 2033.05 212.077 1805.93 201.565 1533.82C189.566 1223.21 142.904 960.139 106.454 795.971C104.661 787.898 103.411 779.801 102.68 771.722C102.641 771.281 102.031 771.198 101.884 771.616C101.726 772.066 101.037 771.936 101.055 771.46C105.16 659.588 110.004 556.397 114.473 470.841ZM174.964 817.727C155.661 725.702 210.852 630.908 302.24 607.647L309.935 605.688C464.284 566.402 626.059 568.893 778.602 612.907C865.725 638.045 915.266 731.025 894.752 819.622C860.847 966.057 819.631 1199.77 820.969 1466.6C822.082 1688.59 853.949 1912.07 881.891 2066.2C901.32 2173.38 828.164 2279.09 719.914 2293.04L701.669 2295.39C584.638 2310.47 466.152 2308.64 349.853 2289.97C248.148 2273.64 184.024 2167.59 205.117 2066.55C234.225 1927.11 263.26 1719.33 254.191 1468.66C244.319 1195.79 205.68 964.163 174.964 817.727Z" fill="#181818"/>
<g filter="url(#filter2_di_4377_13800)">
<path d="M117.566 697.635C115.221 689.264 120.288 680.548 128.756 678.451L534 578.121C536.551 577.49 539.217 577.53 541.738 578.238L928.152 686.734C936.493 689.076 941.201 697.834 938.579 706.124C915.655 778.591 820.438 1103.98 822.555 1503.1C824.423 1855.18 905.378 2210.99 924.699 2291C926.848 2299.9 920.711 2308.65 911.605 2309.79L519.158 2358.96C517.753 2359.14 516.331 2359.12 514.935 2358.9L151.715 2302.13C142.263 2300.65 136.434 2291.04 139.474 2281.94C163.745 2209.28 252.098 1913.92 236.834 1505.12C221.335 1090.02 137.795 769.832 117.566 697.635Z" fill="url(#paint2_linear_4377_13800)"/>
</g>
<g filter="url(#filter3_d_4377_13800)">
<g filter="url(#filter4_d_4377_13800)">
<path d="M931.522 323.258C898.867 253.774 851.234 235.182 818.747 234.331C808.008 234.05 804.047 246.279 810.63 254.779C863.308 322.81 910.421 430.117 938.437 505.244C943.655 519.238 962.083 517.647 962.863 502.743C965.469 452.953 960.343 384.582 931.522 323.258Z" fill="#6C63FF"/>
<path d="M911.625 332.569C890.804 288.266 864.382 268.719 842.305 260.898C880.72 316.242 915.046 388.404 940.438 450.181C937.776 412.479 929.605 370.826 911.625 332.569Z" stroke="#6C63FF" stroke-width="43.9582" stroke-linecap="round"/>
</g>
</g>
<g filter="url(#filter5_d_4377_13800)">
<path d="M119.747 329.91C151.913 255.917 201.552 235.505 235.36 234.036C246.089 233.57 250.375 245.708 244.028 254.371C190.583 327.319 144.261 442.299 117.408 521.696C112.625 535.839 94.0962 534.804 92.8049 519.93C88.2957 467.989 91.2243 395.523 119.747 329.91Z" fill="#6C63FF"/>
<path d="M139.899 338.673C161.079 289.952 189.444 268.86 212.948 260.615C173.064 321.116 138.248 400.842 113.242 467.835C114.396 427.007 121.472 381.062 139.899 338.673Z" stroke="#6C63FF" stroke-width="43.9582" stroke-linecap="round"/>
</g>
<g filter="url(#filter6_di_4377_13800)">
<path fill-rule="evenodd" clip-rule="evenodd" d="M235.276 533.836C164.435 552.778 112.62 613.552 107.621 686.607C106.34 705.321 105.017 726.022 103.706 748.58C114.596 674.554 167.752 609.732 243.886 591.522L290.576 580.354C455.556 540.896 627.65 544.712 790.133 591.431L812.122 597.752C905.702 624.659 960.066 723.026 940.09 818.626C906.381 979.952 864.824 1240.57 866.635 1539.02C868.06 1773.87 902.549 2010.23 934.396 2179.57C935.04 2183 935.606 2186.43 936.094 2189.85C940.534 2175.18 943.407 2159.82 944.524 2143.97C956.263 1977.46 971.207 1711.69 970.236 1448.07C969.047 1125.44 959.636 847.788 953.38 696.391C950.339 622.807 901.002 559.931 830.595 538.687L809.253 532.248C634.792 479.608 448.775 476.747 272.098 523.99L235.276 533.836ZM143.255 2217.55C143.813 2205.23 145.36 2192.86 147.952 2180.57C180.377 2026.86 210.797 1805.53 200.432 1541.01C188.551 1237.81 142.589 980.625 106.288 818.742C103.664 807.042 102.179 795.287 101.763 783.611C93.4995 940.077 86.7993 1170.53 95.8513 1441.34C106.039 1746.13 118.283 1996 126.475 2147.56C127.815 2172.35 133.663 2195.95 143.255 2217.55Z" fill="url(#paint3_linear_4377_13800)"/>
</g>
<g filter="url(#filter7_iii_4377_13800)">
<path fill-rule="evenodd" clip-rule="evenodd" d="M95.2316 526.463C103.497 372.268 198.686 235.427 338.907 169.777C457.146 114.417 594.268 112.845 712.581 166.269C858.329 232.08 953.039 375.521 955.978 535.811C957.351 610.706 958.874 697.484 960.378 790.459C958.634 787.931 956.818 785.459 954.933 783.044C957.398 803.911 956.534 825.456 951.949 846.845C917.156 1009.17 874.427 1270.64 876.265 1569.95C877.685 1801.18 911.856 2033.87 944.153 2203.32C945.14 2208.49 945.954 2213.67 946.599 2218.84C944.812 2250.32 943.035 2280.17 941.319 2308C940.932 2309.57 940.531 2311.13 940.115 2312.69C940.445 2312.3 940.773 2311.92 941.101 2311.53C938.016 2361.39 935.137 2404.61 932.766 2438.89C929.131 2491.43 894.196 2536.42 844.341 2553.73L823.785 2560.87C621.334 2631.17 401.282 2629.21 201.195 2555.34C156 2538.65 124.894 2497.33 121.768 2449.17C119.208 2409.72 115.867 2356.81 112.089 2293.56C120.835 2306.48 130.95 2318.36 142.219 2329.06C129.835 2289.66 127.02 2246.69 135.936 2204.62C168.588 2050.55 198.408 1832.03 187.964 1572.02C175.751 1267.96 128.51 1009.92 91.0666 847.067C87.2838 830.614 85.7561 814.039 86.2889 797.719C84.9074 800.207 83.5914 802.738 82.3438 805.311C86.3094 702.357 90.914 607.013 95.2316 526.463ZM162.453 874.183C141.807 777.588 200.049 677.426 296.306 653.776L304.083 651.865C459.038 613.793 620.888 616.182 774.045 658.802C865.825 684.342 918.046 782.305 896.111 875.348C861.809 1020.85 821.499 1247.5 822.807 1505.41C823.893 1719.6 854.956 1935.19 883.057 2087.25C903.74 2199.18 827.164 2310.08 713.936 2324.17L695.276 2326.49C578.488 2341.03 460.369 2339.29 344.305 2321.32C238.024 2304.87 171.025 2193.64 193.258 2088.15C222.309 1950.3 250.306 1749.01 241.28 1507.51C231.438 1244.15 193.535 1019.61 162.453 874.183Z" fill="url(#paint4_linear_4377_13800)"/>
</g>
<g filter="url(#filter8_ii_4377_13800)">
<path d="M204.688 1138.99C407.243 1060.78 631.299 1058.74 835.24 1133.26L842.346 1135.86C842.346 1135.86 825.065 1270.09 826.048 1555.21C833.833 1838.55 858.856 1965.74 858.856 1965.74L834.561 1971.13C629.152 2016.73 416.064 2015.05 211.402 1966.21C211.402 1966.21 236.354 1748.14 234.236 1556.99C232.416 1392.73 204.688 1138.99 204.688 1138.99Z" fill="url(#paint5_linear_4377_13800)"/>
</g>
<defs>
<filter id="filter0_iii_4377_13800" x="48.0469" y="-0.329048" width="1018.61" height="2689.25" filterUnits="userSpaceOnUse" color-interpolation-filters="sRGB">
<feFlood flood-opacity="0" result="BackgroundImageFix"/>
<feBlend mode="normal" in="SourceGraphic" in2="BackgroundImageFix" result="shape"/>
<feColorMatrix in="SourceAlpha" type="matrix" values="0 0 0 0 0 0 0 0 0 0 0 0 0 0 0 0 0 0 127 0" result="hardAlpha"/>
<feOffset dx="46.0452" dy="-61.3935"/>
<feGaussianBlur stdDeviation="184.181"/>
<feComposite in2="hardAlpha" operator="arithmetic" k2="-1" k3="1"/>
<feColorMatrix type="matrix" values="0 0 0 0 0 0 0 0 0 0 0 0 0 0 0 0 0 0 0.07 0"/>
<feBlend mode="normal" in2="shape" result="effect1_innerShadow_4377_13800"/>
<feColorMatrix in="SourceAlpha" type="matrix" values="0 0 0 0 0 0 0 0 0 0 0 0 0 0 0 0 0 0 127 0" result="hardAlpha"/>
<feOffset dy="-7.67419"/>
<feGaussianBlur stdDeviation="15.3484"/>
<feComposite in2="hardAlpha" operator="arithmetic" k2="-1" k3="1"/>
<feColorMatrix type="matrix" values="0 0 0 0 0 0 0 0 0 0 0 0 0 0 0 0 0 0 0.25 0"/>
<feBlend mode="normal" in2="effect1_innerShadow_4377_13800" result="effect2_innerShadow_4377_13800"/>
<feColorMatrix in="SourceAlpha" type="matrix" values="0 0 0 0 0 0 0 0 0 0 0 0 0 0 0 0 0 0 127 0" result="hardAlpha"/>
<feOffset dy="30.6968"/>
<feGaussianBlur stdDeviation="7.67419"/>
<feComposite in2="hardAlpha" operator="arithmetic" k2="-1" k3="1"/>
<feColorMatrix type="matrix" values="0 0 0 0 0 0 0 0 0 0 0 0 0 0 0 0 0 0 0.25 0"/>
<feBlend mode="normal" in2="effect2_innerShadow_4377_13800" result="effect3_innerShadow_4377_13800"/>
</filter>
<filter id="filter1_iii_4377_13800" x="48.0469" y="-0.329048" width="1018.61" height="2689.25" filterUnits="userSpaceOnUse" color-interpolation-filters="sRGB">
<feFlood flood-opacity="0" result="BackgroundImageFix"/>
<feBlend mode="normal" in="SourceGraphic" in2="BackgroundImageFix" result="shape"/>
<feColorMatrix in="SourceAlpha" type="matrix" values="0 0 0 0 0 0 0 0 0 0 0 0 0 0 0 0 0 0 127 0" result="hardAlpha"/>
<feOffset dx="46.0452" dy="-61.3935"/>
<feGaussianBlur stdDeviation="184.181"/>
<feComposite in2="hardAlpha" operator="arithmetic" k2="-1" k3="1"/>
<feColorMatrix type="matrix" values="0 0 0 0 0 0 0 0 0 0 0 0 0 0 0 0 0 0 0.07 0"/>
<feBlend mode="normal" in2="shape" result="effect1_innerShadow_4377_13800"/>
<feColorMatrix in="SourceAlpha" type="matrix" values="0 0 0 0 0 0 0 0 0 0 0 0 0 0 0 0 0 0 127 0" result="hardAlpha"/>
<feOffset dy="-7.67419"/>
<feGaussianBlur stdDeviation="15.3484"/>
<feComposite in2="hardAlpha" operator="arithmetic" k2="-1" k3="1"/>
<feColorMatrix type="matrix" values="0 0 0 0 0 0 0 0 0 0 0 0 0 0 0 0 0 0 0.25 0"/>
<feBlend mode="normal" in2="effect1_innerShadow_4377_13800" result="effect2_innerShadow_4377_13800"/>
<feColorMatrix in="SourceAlpha" type="matrix" values="0 0 0 0 0 0 0 0 0 0 0 0 0 0 0 0 0 0 127 0" result="hardAlpha"/>
<feOffset dy="30.6968"/>
<feGaussianBlur stdDeviation="7.67419"/>
<feComposite in2="hardAlpha" operator="arithmetic" k2="-1" k3="1"/>
<feColorMatrix type="matrix" values="0 0 0 0 0 0 0 0 0 0 0 0 0 0 0 0 0 0 0.25 0"/>
<feBlend mode="normal" in2="effect2_innerShadow_4377_13800" result="effect3_innerShadow_4377_13800"/>
</filter>
<filter id="filter2_di_4377_13800" x="87.6868" y="577.676" width="859.194" height="1810.71" filterUnits="userSpaceOnUse" color-interpolation-filters="sRGB">
<feFlood flood-opacity="0" result="BackgroundImageFix"/>
<feColorMatrix in="SourceAlpha" type="matrix" values="0 0 0 0 0 0 0 0 0 0 0 0 0 0 0 0 0 0 127 0" result="hardAlpha"/>
<feOffset dy="7.57642"/>
<feGaussianBlur stdDeviation="3.78821"/>
<feColorMatrix type="matrix" values="0 0 0 0 0.925374 0 0 0 0 0.925374 0 0 0 0 0.925374 0 0 0 0.37 0"/>
<feBlend mode="normal" in2="BackgroundImageFix" result="effect1_dropShadow_4377_13800"/>
<feBlend mode="normal" in="SourceGraphic" in2="effect1_dropShadow_4377_13800" result="shape"/>
<feColorMatrix in="SourceAlpha" type="matrix" values="0 0 0 0 0 0 0 0 0 0 0 0 0 0 0 0 0 0 127 0" result="hardAlpha"/>
<feOffset dx="-29.3055" dy="36.6319"/>
<feGaussianBlur stdDeviation="14.6527"/>
<feComposite in2="hardAlpha" operator="arithmetic" k2="-1" k3="1"/>
<feColorMatrix type="matrix" values="0 0 0 0 0 0 0 0 0 0 0 0 0 0 0 0 0 0 0.8 0"/>
<feBlend mode="normal" in2="shape" result="effect2_innerShadow_4377_13800"/>
</filter>
<filter id="filter3_d_4377_13800" x="770.711" y="188.103" width="207.403" height="326.781" filterUnits="userSpaceOnUse" color-interpolation-filters="sRGB">
<feFlood flood-opacity="0" result="BackgroundImageFix"/>
<feColorMatrix in="SourceAlpha" type="matrix" values="0 0 0 0 0 0 0 0 0 0 0 0 0 0 0 0 0 0 127 0" result="hardAlpha"/>
<feOffset dy="-14.6528"/>
<feGaussianBlur stdDeviation="7.32638"/>
<feColorMatrix type="matrix" values="0 0 0 0 0 0 0 0 0 0 0 0 0 0 0 0 0 0 0.25 0"/>
<feBlend mode="normal" in2="BackgroundImageFix" result="effect1_dropShadow_4377_13800"/>
<feBlend mode="normal" in="SourceGraphic" in2="effect1_dropShadow_4377_13800" result="shape"/>
</filter>
<filter id="filter4_d_4377_13800" x="778.037" y="217.409" width="192.75" height="312.128" filterUnits="userSpaceOnUse" color-interpolation-filters="sRGB">
<feFlood flood-opacity="0" result="BackgroundImageFix"/>
<feColorMatrix in="SourceAlpha" type="matrix" values="0 0 0 0 0 0 0 0 0 0 0 0 0 0 0 0 0 0 127 0" result="hardAlpha"/>
<feOffset dy="7.32637"/>
<feGaussianBlur stdDeviation="3.66319"/>
<feColorMatrix type="matrix" values="0 0 0 0 1 0 0 0 0 1 0 0 0 0 1 0 0 0 0.25 0"/>
<feBlend mode="normal" in2="BackgroundImageFix" result="effect1_dropShadow_4377_13800"/>
<feBlend mode="normal" in="SourceGraphic" in2="effect1_dropShadow_4377_13800" result="shape"/>
</filter>
<filter id="filter5_d_4377_13800" x="76.441" y="188.998" width="205.378" height="342.722" filterUnits="userSpaceOnUse" color-interpolation-filters="sRGB">
<feFlood flood-opacity="0" result="BackgroundImageFix"/>
<feColorMatrix in="SourceAlpha" type="matrix" values="0 0 0 0 0 0 0 0 0 0 0 0 0 0 0 0 0 0 127 0" result="hardAlpha"/>
<feOffset dy="-14.6527"/>
<feGaussianBlur stdDeviation="7.32637"/>
<feColorMatrix type="matrix" values="0 0 0 0 0 0 0 0 0 0 0 0 0 0 0 0 0 0 0.25 0"/>
<feBlend mode="normal" in2="BackgroundImageFix" result="effect1_dropShadow_4377_13800"/>
<feBlend mode="normal" in="SourceGraphic" in2="effect1_dropShadow_4377_13800" result="shape"/>
</filter>
<filter id="filter6_di_4377_13800" x="62.218" y="490.547" width="915.639" height="1756.31" filterUnits="userSpaceOnUse" color-interpolation-filters="sRGB">
<feFlood flood-opacity="0" result="BackgroundImageFix"/>
<feColorMatrix in="SourceAlpha" type="matrix" values="0 0 0 0 0 0 0 0 0 0 0 0 0 0 0 0 0 0 127 0" result="hardAlpha"/>
<feOffset dy="7.57642"/>
<feGaussianBlur stdDeviation="3.78821"/>
<feColorMatrix type="matrix" values="0 0 0 0 0.925374 0 0 0 0 0.925374 0 0 0 0 0.925374 0 0 0 0.37 0"/>
<feBlend mode="normal" in2="BackgroundImageFix" result="effect1_dropShadow_4377_13800"/>
<feBlend mode="normal" in="SourceGraphic" in2="effect1_dropShadow_4377_13800" result="shape"/>
<feColorMatrix in="SourceAlpha" type="matrix" values="0 0 0 0 0 0 0 0 0 0 0 0 0 0 0 0 0 0 127 0" result="hardAlpha"/>
<feOffset dx="-29.3055" dy="36.6319"/>
<feGaussianBlur stdDeviation="14.6527"/>
<feComposite in2="hardAlpha" operator="arithmetic" k2="-1" k3="1"/>
<feColorMatrix type="matrix" values="0 0 0 0 0 0 0 0 0 0 0 0 0 0 0 0 0 0 0.8 0"/>
<feBlend mode="normal" in2="shape" result="effect2_innerShadow_4377_13800"/>
</filter>
<filter id="filter7_iii_4377_13800" x="82.3438" y="111.859" width="878.034" height="2531.04" filterUnits="userSpaceOnUse" color-interpolation-filters="sRGB">
<feFlood flood-opacity="0" result="BackgroundImageFix"/>
<feBlend mode="normal" in="SourceGraphic" in2="BackgroundImageFix" result="shape"/>
<feColorMatrix in="SourceAlpha" type="matrix" values="0 0 0 0 0 0 0 0 0 0 0 0 0 0 0 0 0 0 127 0" result="hardAlpha"/>
<feOffset dy="46.0451"/>
<feGaussianBlur stdDeviation="15.3484"/>
<feComposite in2="hardAlpha" operator="arithmetic" k2="-1" k3="1"/>
<feColorMatrix type="matrix" values="0 0 0 0 0.00392157 0 0 0 0 0.00392157 0 0 0 0 0.00392157 0 0 0 0.2 0"/>
<feBlend mode="normal" in2="shape" result="effect1_innerShadow_4377_13800"/>
<feColorMatrix in="SourceAlpha" type="matrix" values="0 0 0 0 0 0 0 0 0 0 0 0 0 0 0 0 0 0 127 0" result="hardAlpha"/>
<feOffset dy="-7.67419"/>
<feGaussianBlur stdDeviation="15.3484"/>
<feComposite in2="hardAlpha" operator="arithmetic" k2="-1" k3="1"/>
<feColorMatrix type="matrix" values="0 0 0 0 0 0 0 0 0 0 0 0 0 0 0 0 0 0 0.25 0"/>
<feBlend mode="normal" in2="effect1_innerShadow_4377_13800" result="effect2_innerShadow_4377_13800"/>
<feColorMatrix in="SourceAlpha" type="matrix" values="0 0 0 0 0 0 0 0 0 0 0 0 0 0 0 0 0 0 127 0" result="hardAlpha"/>
<feOffset dy="-15.3484"/>
<feGaussianBlur stdDeviation="15.3484"/>
<feComposite in2="hardAlpha" operator="arithmetic" k2="-1" k3="1"/>
<feColorMatrix type="matrix" values="0 0 0 0 1 0 0 0 0 1 0 0 0 0 1 0 0 0 0.25 0"/>
<feBlend mode="normal" in2="effect2_innerShadow_4377_13800" result="effect3_innerShadow_4377_13800"/>
</filter>
<filter id="filter8_ii_4377_13800" x="204.688" y="1017.42" width="700.213" height="986.708" filterUnits="userSpaceOnUse" color-interpolation-filters="sRGB">
<feFlood flood-opacity="0" result="BackgroundImageFix"/>
<feBlend mode="normal" in="SourceGraphic" in2="BackgroundImageFix" result="shape"/>
<feColorMatrix in="SourceAlpha" type="matrix" values="0 0 0 0 0 0 0 0 0 0 0 0 0 0 0 0 0 0 127 0" result="hardAlpha"/>
<feOffset dx="46.0451" dy="-61.3935"/>
<feGaussianBlur stdDeviation="184.181"/>
<feComposite in2="hardAlpha" operator="arithmetic" k2="-1" k3="1"/>
<feColorMatrix type="matrix" values="0 0 0 0 0 0 0 0 0 0 0 0 0 0 0 0 0 0 0.07 0"/>
<feBlend mode="normal" in2="shape" result="effect1_innerShadow_4377_13800"/>
<feColorMatrix in="SourceAlpha" type="matrix" values="0 0 0 0 0 0 0 0 0 0 0 0 0 0 0 0 0 0 127 0" result="hardAlpha"/>
<feOffset dy="-7.67419"/>
<feGaussianBlur stdDeviation="15.3484"/>
<feComposite in2="hardAlpha" operator="arithmetic" k2="-1" k3="1"/>
<feColorMatrix type="matrix" values="0 0 0 0 0 0 0 0 0 0 0 0 0 0 0 0 0 0 0.25 0"/>
<feBlend mode="normal" in2="effect1_innerShadow_4377_13800" result="effect2_innerShadow_4377_13800"/>
</filter>
<linearGradient id="paint0_linear_4377_13800" x1="404.841" y1="2569.65" x2="-472.104" y2="2249.02" gradientUnits="userSpaceOnUse">
<stop offset="1" stop-color="#FFFBFB"/>
</linearGradient>
<linearGradient id="paint1_linear_4377_13800" x1="404.841" y1="2569.65" x2="-472.104" y2="2249.02" gradientUnits="userSpaceOnUse">
<stop offset="1" stop-color="#FFFBFB"/>
</linearGradient>
<linearGradient id="paint2_linear_4377_13800" x1="836.711" y1="5767.55" x2="-1143.92" y2="4844.12" gradientUnits="userSpaceOnUse">
<stop stop-color="#FFA500"/>
<stop offset="0.498386" stop-color="#FFA500"/>
<stop offset="1" stop-color="#5D25FF"/>
</linearGradient>
<linearGradient id="paint3_linear_4377_13800" x1="950.792" y1="5511.58" x2="-1081.69" y2="4544.65" gradientUnits="userSpaceOnUse">
<stop stop-color="#E8EAE9"/>
<stop offset="0.498386" stop-color="#707072"/>
<stop offset="1" stop-color="#2F3032"/>
</linearGradient>
<linearGradient id="paint4_linear_4377_13800" x1="434.721" y1="2503.18" x2="-338.87" y2="2256.52" gradientUnits="userSpaceOnUse">
<stop stop-color="white"/>
<stop offset="0.628054" stop-color="white"/>
<stop offset="1" stop-color="white"/>
</linearGradient>
<linearGradient id="paint5_linear_4377_13800" x1="742.053" y1="1906.19" x2="39.4325" y2="925.325" gradientUnits="userSpaceOnUse">
<stop offset="1" stop-color="white"/>
</linearGradient>
</defs>
</svg>
